<!-- Generated by IcoMoon.io -->
<svg version="1.1" xmlns="http://www.w3.org/2000/svg" width="38" height="32" viewBox="0 0 38 32">
<title>core-icon</title>
<path d="M37.378 4.84h-36.84v-3.63c0-0.297 0.241-0.538 0.538-0.538h35.765c0.297 0 0.538 0.241 0.538 0.538v3.63zM37.378 30.924c0 0.297-0.241 0.538-0.538 0.538h-35.765c-0.297 0-0.538-0.241-0.538-0.538v-25.546h36.84v25.546zM36.84 0.134h-35.765c-0.593 0-1.076 0.482-1.076 1.076v29.714c0 0.593 0.482 1.076 1.076 1.076h35.765c0.593 0 1.076-0.482 1.076-1.076v-29.714c0-0.593-0.482-1.076-1.076-1.076v0zM2.79 1.95c-0.427 0-0.773 0.346-0.773 0.773s0.346 0.773 0.773 0.773c0.427 0 0.773-0.346 0.773-0.773s-0.346-0.773-0.773-0.773zM5.21 1.95c-0.427 0-0.773 0.346-0.773 0.773s0.346 0.773 0.773 0.773c0.427 0 0.773-0.346 0.773-0.773s-0.346-0.773-0.773-0.773zM7.574 1.95c-0.427 0-0.773 0.346-0.773 0.773s0.346 0.773 0.773 0.773c0.427 0 0.773-0.346 0.773-0.773s-0.346-0.773-0.773-0.773zM10.27 17.966c0.402-0.040 0.742-0.172 1.013-0.393 0.314-0.256 0.525-0.609 0.628-1.051 0.097-0.418 0.146-1.102 0.152-2.089 0.005-0.954 0.023-1.589 0.051-1.885 0.049-0.46 0.141-0.832 0.272-1.104 0.128-0.267 0.287-0.482 0.473-0.639s0.428-0.279 0.718-0.362c0.203-0.053 0.547-0.080 1.023-0.080h0.283v0.957h-0.067c-0.667 0-1.107 0.128-1.345 0.391-0.237 0.26-0.347 0.764-0.347 1.587 0 1.494-0.031 2.448-0.092 2.834-0.098 0.584-0.265 1.035-0.496 1.342s-0.603 0.587-1.109 0.832l-0.403 0.195 0.413 0.173c0.587 0.246 1.018 0.624 1.281 1.125 0.269 0.515 0.406 1.385 0.406 2.588 0 1.146 0.012 1.811 0.036 2.033 0.052 0.444 0.194 0.766 0.422 0.955 0.227 0.189 0.631 0.28 1.233 0.28h0.067v0.957h-0.283c-0.539 0-0.93-0.043-1.162-0.127-0.333-0.12-0.613-0.316-0.83-0.583-0.218-0.268-0.363-0.616-0.429-1.035-0.070-0.445-0.109-1.19-0.115-2.213-0.006-1.063-0.056-1.783-0.152-2.202-0.102-0.441-0.313-0.796-0.627-1.055-0.271-0.223-0.612-0.357-1.014-0.397v-1.033zM11.027 19.709c0.247 0.204 0.408 0.477 0.491 0.834 0.088 0.383 0.136 1.094 0.142 2.113 0.005 1.044 0.046 1.81 0.119 2.274 0.078 0.49 0.251 0.903 0.515 1.227s0.603 0.563 1.006 0.708c0.279 0.101 0.704 0.151 1.299 0.151h0.687v-1.764h-0.47c-0.62 0-0.873-0.102-0.976-0.187-0.146-0.121-0.24-0.354-0.279-0.69-0.022-0.203-0.033-0.872-0.033-1.988 0-1.286-0.148-2.194-0.452-2.775-0.249-0.475-0.624-0.854-1.117-1.131 0.389-0.228 0.691-0.485 0.9-0.763 0.27-0.359 0.462-0.869 0.571-1.519 0.066-0.414 0.098-1.363 0.098-2.899 0-0.913 0.152-1.216 0.243-1.316 0.106-0.118 0.374-0.258 1.046-0.258h0.47v-1.764h-0.687c-0.518 0-0.886 0.030-1.13 0.094-0.35 0.1-0.643 0.249-0.872 0.443s-0.423 0.454-0.575 0.772c-0.151 0.314-0.255 0.729-0.31 1.238-0.030 0.315-0.047 0.945-0.053 1.924-0.006 0.944-0.053 1.617-0.142 2.001-0.083 0.357-0.243 0.628-0.49 0.829-0.243 0.198-0.568 0.304-0.965 0.314l-0.196 0.005v1.805l0.196 0.005c0.396 0.011 0.721 0.117 0.964 0.318v0zM23.196 25.655h0.067c0.667 0 1.107-0.128 1.345-0.391 0.233-0.257 0.347-0.779 0.347-1.595 0-1.428 0.026-2.343 0.076-2.718 0.087-0.605 0.261-1.093 0.518-1.449 0.254-0.352 0.622-0.631 1.093-0.829l0.414-0.174-0.405-0.194c-0.621-0.297-1.062-0.691-1.311-1.172-0.255-0.491-0.385-1.35-0.385-2.554 0-1.144-0.015-1.812-0.044-2.040-0.046-0.439-0.186-0.758-0.415-0.946-0.227-0.185-0.63-0.275-1.232-0.275h-0.067v-0.957h0.283c0.539 0 0.93 0.043 1.165 0.127 0.331 0.114 0.61 0.308 0.827 0.577 0.219 0.271 0.364 0.621 0.43 1.040 0.070 0.443 0.108 1.189 0.114 2.214 0.006 1.064 0.055 1.783 0.152 2.197 0.102 0.438 0.313 0.791 0.627 1.050 0.272 0.224 0.612 0.357 1.014 0.398v1.033c-0.402 0.041-0.742 0.174-1.014 0.398-0.314 0.259-0.525 0.612-0.627 1.050-0.097 0.414-0.147 1.096-0.152 2.085-0.006 0.954-0.023 1.59-0.051 1.886-0.049 0.465-0.141 0.838-0.271 1.107-0.129 0.265-0.288 0.479-0.473 0.637s-0.428 0.278-0.723 0.363c-0.201 0.058-0.543 0.088-1.018 0.088h-0.283v-0.957zM24.609 26.912c0.35-0.1 0.643-0.249 0.872-0.443s0.422-0.452 0.575-0.768c0.151-0.311 0.255-0.729 0.309-1.243 0.029-0.315 0.047-0.944 0.053-1.924 0.006-0.944 0.053-1.616 0.142-1.995 0.082-0.355 0.243-0.626 0.491-0.83s0.563-0.308 0.965-0.318l0.196-0.005v-1.805l-0.196-0.005c-0.402-0.010-0.718-0.115-0.965-0.318s-0.408-0.475-0.491-0.83c-0.089-0.38-0.136-1.089-0.142-2.108-0.006-1.060-0.045-1.804-0.119-2.275-0.078-0.49-0.251-0.904-0.515-1.23-0.266-0.329-0.605-0.566-1.006-0.704-0.28-0.101-0.705-0.151-1.299-0.151h-0.687v1.764h0.47c0.621 0 0.875 0.1 0.977 0.184 0.144 0.118 0.235 0.345 0.27 0.68 0.019 0.146 0.042 0.61 0.042 1.993 0 1.287 0.141 2.184 0.43 2.74 0.239 0.461 0.621 0.849 1.14 1.16-0.371 0.208-0.672 0.472-0.899 0.787-0.295 0.41-0.494 0.957-0.591 1.629-0.054 0.4-0.080 1.307-0.080 2.773 0 0.92-0.152 1.224-0.243 1.324-0.107 0.118-0.375 0.259-1.046 0.259h-0.47v1.764h0.687c0.52 0 0.89-0.034 1.13-0.103v0z"></path>
</svg>
