<?xml version="1.0" encoding="UTF-8" standalone="no"?>
<svg width="141px" height="119px" viewBox="0 0 141 119" version="1.1" xmlns="http://www.w3.org/2000/svg" xmlns:xlink="http://www.w3.org/1999/xlink" xmlns:sketch="http://www.bohemiancoding.com/sketch/ns">
    <!-- Generator: Sketch 3.4 (15588) - http://www.bohemiancoding.com/sketch -->
    <title>Page 1</title>
    <desc>Created with Sketch.</desc>
    <defs></defs>
    <g id="Page-1" stroke="none" stroke-width="1" fill="none" fill-rule="evenodd" sketch:type="MSPage">
        <g id="Artboard-2" sketch:type="MSArtboardGroup" transform="translate(-37.000000, -214.000000)" fill="#020202">
            <g id="Page-1" sketch:type="MSLayerGroup" transform="translate(37.000000, 214.000000)">
                <path d="M139,18 L2,18 L2,4.5 C2,3.397 2.897,2.5 4,2.5 L137,2.5 C138.103,2.5 139,3.397 139,4.5 L139,18 Z M139,115 C139,116.103 138.103,117 137,117 L4,117 C2.897,117 2,116.103 2,115 L2,20 L139,20 L139,115 Z M137,0.5 L4,0.5 C1.794,0.5 0,2.294 0,4.5 L0,115 C0,117.206 1.794,119 4,119 L137,119 C139.206,119 141,117.206 141,115 L141,4.5 C141,2.294 139.206,0.5 137,0.5 L137,0.5 Z" id="Fill-1" sketch:type="MSShapeGroup"></path>
                <path d="M10.3753,7.25 C8.7873,7.25 7.5003,8.537 7.5003,10.125 C7.5003,11.713 8.7873,13 10.3753,13 C11.9633,13 13.2503,11.713 13.2503,10.125 C13.2503,8.537 11.9633,7.25 10.3753,7.25" id="Fill-3" sketch:type="MSShapeGroup"></path>
                <path d="M19.3753,7.25 C17.7873,7.25 16.5003,8.537 16.5003,10.125 C16.5003,11.713 17.7873,13 19.3753,13 C20.9633,13 22.2503,11.713 22.2503,10.125 C22.2503,8.537 20.9633,7.25 19.3753,7.25" id="Fill-5" sketch:type="MSShapeGroup"></path>
                <path d="M28.167,7.25 C26.579,7.25 25.292,8.537 25.292,10.125 C25.292,11.713 26.579,13 28.167,13 C29.755,13 31.042,11.713 31.042,10.125 C31.042,8.537 29.755,7.25 28.167,7.25" id="Fill-7" sketch:type="MSShapeGroup"></path>
                <path d="M38.1931,66.8125 C39.6871,66.6635 40.9521,66.1735 41.9601,65.3525 C43.1291,64.4015 43.9141,63.0865 44.2951,61.4445 C44.6551,59.8885 44.8391,57.3475 44.8621,53.6755 C44.8821,50.1285 44.9461,47.7665 45.0511,46.6645 C45.2341,44.9525 45.5741,43.5715 46.0611,42.5585 C46.5381,41.5655 47.1291,40.7655 47.8191,40.1815 C48.5061,39.5985 49.4101,39.1445 50.4891,38.8355 C51.2421,38.6385 52.5221,38.5385 54.2941,38.5385 L55.3471,38.5385 L55.3471,42.0965 L55.0981,42.0965 C52.6171,42.0965 50.9801,42.5735 50.0981,43.5505 C49.2171,44.5185 48.8071,46.3935 48.8071,49.4515 C48.8071,55.0075 48.6911,58.5555 48.4641,59.9915 C48.0981,62.1615 47.4781,63.8395 46.6201,64.9825 C45.7651,66.1245 44.3791,67.1645 42.4971,68.0755 L41.0001,68.7995 L42.5351,69.4415 C44.7181,70.3555 46.3211,71.7625 47.2981,73.6245 C48.2991,75.5385 48.8071,78.7755 48.8071,83.2485 C48.8071,87.5115 48.8511,89.9835 48.9411,90.8095 C49.1341,92.4615 49.6641,93.6565 50.5121,94.3615 C51.3571,95.0625 52.8571,95.4035 55.0981,95.4035 L55.3471,95.4035 L55.3471,98.9615 L54.2941,98.9615 C52.2881,98.9615 50.8351,98.8035 49.9721,98.4905 C48.7321,98.0435 47.6931,97.3145 46.8841,96.3225 C46.0721,95.3255 45.5351,94.0305 45.2881,92.4745 C45.0261,90.8205 44.8821,88.0505 44.8621,84.2435 C44.8391,80.2895 44.6551,77.6115 44.2951,76.0555 C43.9151,74.4165 43.1301,73.0965 41.9631,72.1335 C40.9541,71.3025 39.6881,70.8065 38.1931,70.6555 L38.1931,66.8125 Z M41.0081,73.2915 C41.9281,74.0495 42.5251,75.0645 42.8341,76.3935 C43.1631,77.8195 43.3401,80.4625 43.3621,84.2505 C43.3821,88.1345 43.5321,90.9805 43.8061,92.7085 C44.0951,94.5305 44.7401,96.0655 45.7221,97.2695 C46.7051,98.4755 47.9641,99.3615 49.4631,99.9015 C50.5021,100.2785 52.0821,100.4615 54.2941,100.4615 L56.8471,100.4615 L56.8471,93.9035 L55.0981,93.9035 C52.7931,93.9035 51.8531,93.5245 51.4701,93.2075 C50.9271,92.7565 50.5781,91.8915 50.4311,90.6415 C50.3491,89.8855 50.3071,87.3985 50.3071,83.2485 C50.3071,78.4645 49.7571,75.0885 48.6271,72.9275 C47.7001,71.1625 46.3061,69.7515 44.4741,68.7205 C45.9221,67.8715 47.0441,66.9185 47.8201,65.8815 C48.8231,64.5465 49.5381,62.6485 49.9431,60.2325 C50.1881,58.6925 50.3071,55.1655 50.3071,49.4515 C50.3071,46.0565 50.8721,44.9295 51.2101,44.5575 C51.6051,44.1195 52.6011,43.5965 55.0981,43.5965 L56.8471,43.5965 L56.8471,37.0385 L54.2941,37.0385 C52.3671,37.0385 50.9981,37.1515 50.0921,37.3885 C48.7911,37.7605 47.7001,38.3155 46.8491,39.0375 C45.9981,39.7585 45.2771,40.7245 44.7101,41.9095 C44.1481,43.0755 43.7611,44.6215 43.5581,46.5125 C43.4471,47.6845 43.3821,50.0255 43.3621,53.6665 C43.3401,57.1775 43.1631,59.6805 42.8341,61.1065 C42.5251,62.4345 41.9301,63.4425 41.0121,64.1895 C40.1071,64.9265 38.9001,65.3205 37.4231,65.3585 L36.6931,65.3775 L36.6931,72.0895 L37.4231,72.1095 C38.8971,72.1485 40.1041,72.5455 41.0081,73.2915 L41.0081,73.2915 Z" id="Fill-11" sketch:type="MSShapeGroup"></path>
                <path d="M86.2614,95.4033 L86.5094,95.4033 C88.9904,95.4033 90.6254,94.9263 91.5114,93.9483 C92.3794,92.9923 92.8014,91.0513 92.8014,88.0163 C92.8014,82.7063 92.8974,79.3033 93.0834,77.9103 C93.4074,75.6603 94.0554,73.8473 95.0114,72.5233 C95.9554,71.2153 97.3234,70.1773 99.0754,69.4413 L100.6154,68.7943 L99.1084,68.0733 C96.8004,66.9703 95.1594,65.5053 94.2314,63.7163 C93.2824,61.8903 92.8014,58.6963 92.8014,54.2193 C92.8014,49.9663 92.7464,47.4803 92.6364,46.6343 C92.4654,45.0003 91.9464,43.8163 91.0914,43.1173 C90.2474,42.4303 88.7484,42.0963 86.5094,42.0963 L86.2614,42.0963 L86.2614,38.5383 L87.3154,38.5383 C89.3194,38.5383 90.7724,38.6963 91.6464,39.0123 C92.8784,39.4363 93.9134,40.1593 94.7224,41.1593 C95.5354,42.1663 96.0744,43.4673 96.3214,45.0253 C96.5814,46.6743 96.7244,49.4453 96.7464,53.2573 C96.7684,57.2153 96.9524,59.8873 97.3134,61.4293 C97.6934,63.0583 98.4774,64.3723 99.6444,65.3333 C100.6544,66.1663 101.9194,66.6623 103.4154,66.8123 L103.4154,70.6553 C101.9194,70.8063 100.6544,71.3023 99.6444,72.1343 C98.4764,73.0973 97.6924,74.4113 97.3134,76.0383 C96.9524,77.5793 96.7684,80.1153 96.7464,83.7913 C96.7244,87.3403 96.6604,89.7023 96.5574,90.8043 C96.3744,92.5343 96.0344,93.9203 95.5494,94.9213 C95.0704,95.9073 94.4784,96.7043 93.7894,97.2883 C93.1034,97.8693 92.1994,98.3233 91.1024,98.6363 C90.3564,98.8523 89.0814,98.9623 87.3154,98.9623 L86.2614,98.9623 L86.2614,95.4033 Z M91.5164,100.0783 C92.8184,99.7063 93.9084,99.1523 94.7594,98.4323 C95.6084,97.7123 96.3274,96.7513 96.8994,95.5763 C97.4604,94.4183 97.8474,92.8653 98.0504,90.9533 C98.1594,89.7823 98.2244,87.4423 98.2464,83.7993 C98.2674,80.2873 98.4444,77.7903 98.7744,76.3793 C99.0804,75.0603 99.6784,74.0503 100.5984,73.2923 C101.5164,72.5363 102.6904,72.1483 104.1854,72.1093 L104.9154,72.0903 L104.9154,65.3783 L104.1854,65.3583 C102.6894,65.3203 101.5164,64.9323 100.5984,64.1753 C99.6784,63.4183 99.0814,62.4083 98.7744,61.0893 C98.4444,59.6773 98.2674,57.0403 98.2464,53.2493 C98.2244,49.3063 98.0784,46.5403 97.8024,44.7903 C97.5134,42.9693 96.8694,41.4303 95.8884,40.2153 C94.9004,38.9933 93.6374,38.1113 92.1464,37.5983 C91.1044,37.2213 89.5244,37.0383 87.3154,37.0383 L84.7614,37.0383 L84.7614,43.5963 L86.5094,43.5963 C88.8194,43.5963 89.7614,43.9683 90.1434,44.2793 C90.6794,44.7173 91.0164,45.5633 91.1464,46.8093 C91.2174,47.3513 91.3014,49.0773 91.3014,54.2193 C91.3014,59.0063 91.8244,62.3393 92.9004,64.4073 C93.7894,66.1203 95.2114,67.5663 97.1394,68.7193 C95.7614,69.4943 94.6404,70.4743 93.7944,71.6463 C92.6964,73.1693 91.9574,75.2043 91.5984,77.7043 C91.3984,79.1903 91.3014,82.5633 91.3014,88.0163 C91.3014,91.4363 90.7374,92.5693 90.3994,92.9413 C90.0024,93.3803 89.0054,93.9033 86.5094,93.9033 L84.7614,93.9033 L84.7614,100.4623 L87.3154,100.4623 C89.2494,100.4623 90.6244,100.3363 91.5164,100.0783 L91.5164,100.0783 Z" id="Fill-13" sketch:type="MSShapeGroup"></path>
            </g>
        </g>
    </g>
</svg>