<?xml version="1.0" encoding="UTF-8" standalone="no"?>
<svg width="141px" height="119px" viewBox="0 0 141 119" version="1.1" xmlns="http://www.w3.org/2000/svg" xmlns:xlink="http://www.w3.org/1999/xlink" xmlns:sketch="http://www.bohemiancoding.com/sketch/ns">
    <!-- Generator: Sketch 3.4 (15588) - http://www.bohemiancoding.com/sketch -->
    <title>Page 1</title>
    <desc>Created with Sketch.</desc>
    <defs></defs>
    <g id="Page-1" stroke="none" stroke-width="1" fill="none" fill-rule="evenodd" sketch:type="MSPage">
        <g id="Artboard-2" sketch:type="MSArtboardGroup" transform="translate(-174.000000, -130.000000)" fill="#1D1C1B">
            <g id="Page-1" sketch:type="MSLayerGroup" transform="translate(174.000000, 130.000000)">
                <path d="M10.184,29.2009 C10.184,28.6589 10.642,28.2009 11.184,28.2009 L63.955,28.2009 C64.497,28.2009 64.955,28.6589 64.955,29.2009 L64.955,108.0099 C64.955,108.5519 64.497,109.0099 63.955,109.0099 L11.184,109.0099 C10.642,109.0099 10.184,108.5519 10.184,108.0099 L10.184,29.2009 Z M11.184,111.0099 L63.955,111.0099 C65.605,111.0099 66.955,109.6599 66.955,108.0099 L66.955,29.2009 C66.955,27.5509 65.605,26.2009 63.955,26.2009 L11.184,26.2009 C9.534,26.2009 8.184,27.5509 8.184,29.2009 L8.184,108.0099 C8.184,109.6599 9.534,111.0099 11.184,111.0099 L11.184,111.0099 Z" id="Fill-1" sketch:type="MSShapeGroup"></path>
                <path d="M75.184,29.2009 C75.184,28.6589 75.642,28.2009 76.184,28.2009 L128.955,28.2009 C129.497,28.2009 129.955,28.6589 129.955,29.2009 L129.955,72.3179 C129.955,72.8599 129.497,73.3179 128.955,73.3179 L76.184,73.3179 C75.642,73.3179 75.184,72.8599 75.184,72.3179 L75.184,29.2009 Z M76.184,75.3179 L128.955,75.3179 C130.605,75.3179 131.955,73.9679 131.955,72.3179 L131.955,29.2009 C131.955,27.5509 130.605,26.2009 128.955,26.2009 L76.184,26.2009 C74.534,26.2009 73.184,27.5509 73.184,29.2009 L73.184,72.3179 C73.184,73.9679 74.534,75.3179 76.184,75.3179 L76.184,75.3179 Z" id="Fill-3" sketch:type="MSShapeGroup"></path>
                <path d="M75.184,85.4977 C75.184,84.9557 75.642,84.4977 76.184,84.4977 L128.955,84.4977 C129.497,84.4977 129.955,84.9557 129.955,85.4977 L129.955,107.6517 C129.955,108.1937 129.497,108.6517 128.955,108.6517 L76.184,108.6517 C75.642,108.6517 75.184,108.1937 75.184,107.6517 L75.184,85.4977 Z M76.184,110.6517 L128.955,110.6517 C130.605,110.6517 131.955,109.3017 131.955,107.6517 L131.955,85.4977 C131.955,83.8477 130.605,82.4977 128.955,82.4977 L76.184,82.4977 C74.534,82.4977 73.184,83.8477 73.184,85.4977 L73.184,107.6517 C73.184,109.3017 74.534,110.6517 76.184,110.6517 L76.184,110.6517 Z" id="Fill-5" sketch:type="MSShapeGroup"></path>
                <path d="M139,18 L2,18 L2,4.5 C2,3.397 2.897,2.5 4,2.5 L137,2.5 C138.103,2.5 139,3.397 139,4.5 L139,18 Z M139,115 C139,116.103 138.103,117 137,117 L4,117 C2.897,117 2,116.103 2,115 L2,20 L139,20 L139,115 Z M137,0.5 L4,0.5 C1.794,0.5 0,2.294 0,4.5 L0,115 C0,117.206 1.794,119 4,119 L137,119 C139.206,119 141,117.206 141,115 L141,4.5 C141,2.294 139.206,0.5 137,0.5 L137,0.5 Z" id="Fill-7" sketch:type="MSShapeGroup"></path>
                <path d="M10.3754,7.2503 C8.7874,7.2503 7.5004,8.5373 7.5004,10.1253 C7.5004,11.7133 8.7874,13.0003 10.3754,13.0003 C11.9634,13.0003 13.2504,11.7133 13.2504,10.1253 C13.2504,8.5373 11.9634,7.2503 10.3754,7.2503" id="Fill-9" sketch:type="MSShapeGroup"></path>
                <path d="M19.3754,7.2503 C17.7874,7.2503 16.5004,8.5373 16.5004,10.1253 C16.5004,11.7133 17.7874,13.0003 19.3754,13.0003 C20.9634,13.0003 22.2504,11.7133 22.2504,10.1253 C22.2504,8.5373 20.9634,7.2503 19.3754,7.2503" id="Fill-11" sketch:type="MSShapeGroup"></path>
                <path d="M28.167,7.2503 C26.579,7.2503 25.292,8.5373 25.292,10.1253 C25.292,11.7133 26.579,13.0003 28.167,13.0003 C29.755,13.0003 31.042,11.7133 31.042,10.1253 C31.042,8.5373 29.755,7.2503 28.167,7.2503" id="Fill-13" sketch:type="MSShapeGroup"></path>
            </g>
        </g>
    </g>
</svg>