<!-- Generated by IcoMoon.io -->
<svg version="1.1" xmlns="http://www.w3.org/2000/svg" width="38" height="32" viewBox="0 0 38 32">
<title>theme-icon</title>
<path d="M2.739 7.852c0-0.146 0.123-0.269 0.269-0.269h14.191c0.146 0 0.269 0.123 0.269 0.269v21.192c0 0.146-0.123 0.269-0.269 0.269h-14.191c-0.146 0-0.269-0.123-0.269-0.269v-21.192zM3.007 29.851h14.191c0.444 0 0.807-0.363 0.807-0.807v-21.192c0-0.444-0.363-0.807-0.807-0.807h-14.191c-0.444 0-0.807 0.363-0.807 0.807v21.192c0 0.444 0.363 0.807 0.807 0.807v0zM20.218 7.852c0-0.146 0.123-0.269 0.269-0.269h14.191c0.146 0 0.269 0.123 0.269 0.269v11.595c0 0.146-0.123 0.269-0.269 0.269h-14.191c-0.146 0-0.269-0.123-0.269-0.269v-11.595zM20.486 20.254h14.191c0.444 0 0.807-0.363 0.807-0.807v-11.595c0-0.444-0.363-0.807-0.807-0.807h-14.191c-0.444 0-0.807 0.363-0.807 0.807v11.595c0 0.444 0.363 0.807 0.807 0.807v0zM20.218 22.991c0-0.146 0.123-0.269 0.269-0.269h14.191c0.146 0 0.269 0.123 0.269 0.269v5.957c0 0.146-0.123 0.269-0.269 0.269h-14.191c-0.146 0-0.269-0.123-0.269-0.269v-5.957zM20.486 29.755h14.191c0.444 0 0.807-0.363 0.807-0.807v-5.957c0-0.444-0.363-0.807-0.807-0.807h-14.191c-0.444 0-0.807 0.363-0.807 0.807v5.957c0 0.444 0.363 0.807 0.807 0.807v0zM37.378 4.84h-36.84v-3.63c0-0.297 0.241-0.538 0.538-0.538h35.765c0.297 0 0.538 0.241 0.538 0.538v3.63zM37.378 30.924c0 0.297-0.241 0.538-0.538 0.538h-35.765c-0.297 0-0.538-0.241-0.538-0.538v-25.546h36.84v25.546zM36.84 0.134h-35.765c-0.593 0-1.076 0.482-1.076 1.076v29.714c0 0.593 0.482 1.076 1.076 1.076h35.765c0.593 0 1.076-0.482 1.076-1.076v-29.714c0-0.593-0.482-1.076-1.076-1.076v0zM2.79 1.95c-0.427 0-0.773 0.346-0.773 0.773s0.346 0.773 0.773 0.773c0.427 0 0.773-0.346 0.773-0.773s-0.346-0.773-0.773-0.773zM5.21 1.95c-0.427 0-0.773 0.346-0.773 0.773s0.346 0.773 0.773 0.773c0.427 0 0.773-0.346 0.773-0.773s-0.346-0.773-0.773-0.773zM7.574 1.95c-0.427 0-0.773 0.346-0.773 0.773s0.346 0.773 0.773 0.773c0.427 0 0.773-0.346 0.773-0.773s-0.346-0.773-0.773-0.773z"></path>
</svg>
